<svg width="38" height="34" viewBox="0 0 38 34" fill="none" xmlns="http://www.w3.org/2000/svg">
<path fill-rule="evenodd" clip-rule="evenodd" d="M35.3492 2.68249C35.6031 2.40999 35.7414 2.04957 35.7348 1.67716C35.7282 1.30475 35.5774 0.949424 35.314 0.686049C35.0506 0.422674 34.6953 0.271809 34.3229 0.265239C33.9505 0.258668 33.5901 0.396904 33.3176 0.650824L2.65088 31.3175C2.50965 31.4491 2.39637 31.6078 2.3178 31.7841C2.23924 31.9605 2.19699 32.1508 2.19358 32.3438C2.19018 32.5368 2.22568 32.7286 2.29798 32.9076C2.37028 33.0865 2.47789 33.2491 2.61439 33.3857C2.7509 33.5222 2.91349 33.6298 3.09249 33.7021C3.27148 33.7744 3.4632 33.8099 3.65622 33.8065C3.84923 33.8031 4.03958 33.7608 4.21591 33.6822C4.39225 33.6037 4.55095 33.4904 4.68255 33.3492L10.1393 27.8924C12.7594 29.1267 15.7743 29.9375 19.0001 29.9375C24.1444 29.9375 28.7559 27.8732 32.0717 25.3279C33.7335 24.0533 35.1058 22.6312 36.0756 21.2339C37.0186 19.875 37.6876 18.3857 37.6876 17C37.6876 15.6142 37.0167 14.125 36.0756 12.7661C35.1058 11.3688 33.7335 9.94857 32.0736 8.67207C31.5695 8.28682 31.0386 7.91116 30.479 7.55466L35.3492 2.68249ZM28.3917 9.64191L24.9973 13.0363C25.9124 14.4185 26.3217 16.0745 26.1558 17.7239C25.9898 19.3732 25.2588 20.9145 24.0867 22.0866C22.9145 23.2588 21.3733 23.9897 19.7239 24.1557C18.0746 24.3216 16.4186 23.9124 15.0364 22.9972L12.3205 25.7112C14.4387 26.5894 16.7071 27.0483 19.0001 27.0625C23.3835 27.0625 27.3951 25.2934 30.3218 23.0471C31.7823 21.9258 32.9361 20.7126 33.7143 19.5952C34.5174 18.4375 34.8126 17.5309 34.8126 17C34.8126 16.4691 34.5174 15.5625 33.7143 14.4048C32.9361 13.2874 31.7823 12.0742 30.3218 10.9529C29.7219 10.4929 29.0779 10.0521 28.3917 9.64191ZM17.1409 20.8927C17.9456 21.2771 18.8497 21.4025 19.7287 21.2517C20.6076 21.1009 21.4182 20.6813 22.0488 20.0507C22.6794 19.4201 23.099 18.6095 23.2498 17.7305C23.4006 16.8516 23.2752 15.9475 22.8909 15.1427L17.1409 20.8927ZM19 4.0625C20.978 4.0625 22.8793 4.36917 24.6561 4.88858C24.7339 4.91179 24.8042 4.95493 24.8602 5.01373C24.9162 5.07252 24.9558 5.14492 24.9752 5.22376C24.9946 5.3026 24.993 5.38513 24.9707 5.46317C24.9483 5.54121 24.9059 5.61205 24.8477 5.66867L23.2684 7.24992C23.2098 7.30809 23.1374 7.3504 23.0579 7.37287C22.9784 7.39533 22.8946 7.39721 22.8142 7.37833C21.5635 7.08786 20.284 6.93998 19 6.9375C14.6166 6.9375 10.605 8.70658 7.67825 10.9529C6.21775 12.0742 5.06392 13.2874 4.28575 14.4048C3.48267 15.5625 3.1875 16.4691 3.1875 17C3.1875 17.5309 3.48267 18.4375 4.28575 19.5952C4.96425 20.5727 5.93025 21.6211 7.13775 22.6177C7.36008 22.7998 7.38117 23.1352 7.17608 23.3403L5.81908 24.6992C5.73597 24.7836 5.62419 24.8335 5.50595 24.8392C5.3877 24.8449 5.27164 24.8059 5.18083 24.7299C3.94683 23.7123 2.85197 22.5369 1.92442 21.2339C0.983334 19.875 0.3125 18.3857 0.3125 17C0.3125 15.6143 0.983334 14.125 1.92442 12.7661C2.89425 11.3688 4.26658 9.94858 5.92642 8.67208C9.24417 6.12675 13.8557 4.0625 19 4.0625ZM19.6728 9.84317C19.4524 9.82208 19.2262 9.8125 19 9.8125C17.9994 9.81238 17.0097 10.0212 16.0944 10.4256C15.1791 10.83 14.3583 11.4211 13.6846 12.161C13.0109 12.901 12.4991 13.7734 12.182 14.7225C11.8649 15.6716 11.7495 16.6765 11.8432 17.6727C11.8796 18.0503 12.33 18.1883 12.5984 17.92L14.9214 15.5951C15.1354 14.976 15.4873 14.4136 15.9505 13.9505C16.4137 13.4873 16.976 13.1354 17.5951 12.9213L19.92 10.5983C20.1864 10.33 20.0504 9.87958 19.6728 9.84317Z" fill="#BCBCBC"/>
</svg>
