<svg width="38" height="26" viewBox="0 0 38 26" fill="none" xmlns="http://www.w3.org/2000/svg">
<path fill-rule="evenodd" clip-rule="evenodd" d="M3.1875 13C3.1875 12.4691 3.48267 11.5625 4.28575 10.4048C5.06392 9.28742 6.21775 8.07417 7.67825 6.95292C10.605 4.70658 14.6166 2.9375 19 2.9375C23.3834 2.9375 27.395 4.70658 30.3217 6.95292C31.7822 8.07417 32.9361 9.28742 33.7142 10.4048C34.5173 11.5625 34.8125 12.4691 34.8125 13C34.8125 13.5309 34.5173 14.4375 33.7142 15.5952C32.9361 16.7126 31.7822 17.9258 30.3217 19.0471C27.395 21.2934 23.3834 23.0625 19 23.0625C14.6166 23.0625 10.605 21.2934 7.67825 19.0471C6.21775 17.9258 5.06392 16.7126 4.28575 15.5952C3.48267 14.4375 3.1875 13.5309 3.1875 13ZM19 0.0625C13.8557 0.0625 9.24417 2.12675 5.92642 4.67208C4.26658 5.94858 2.89425 7.36883 1.92442 8.76608C0.983333 10.125 0.3125 11.6143 0.3125 13C0.3125 14.3857 0.983333 15.875 1.92442 17.2339C2.89425 18.6312 4.26658 20.0533 5.92833 21.3279C9.24417 23.8732 13.8557 25.9375 19 25.9375C24.1443 25.9375 28.7577 23.8732 32.0736 21.3279C33.7334 20.0514 35.1058 18.6312 36.0756 17.2339C37.0167 15.875 37.6875 14.3857 37.6875 13C37.6875 11.6143 37.0186 10.125 36.0756 8.76608C35.1058 7.36883 33.7334 5.94667 32.0717 4.67208C28.7558 2.12675 24.1443 0.0625 19 0.0625ZM13.9177 7.91767C12.5698 9.26559 11.8125 11.0938 11.8125 13C11.8125 14.9062 12.5698 16.7344 13.9177 18.0823C15.2656 19.4302 17.0938 20.1875 19 20.1875C20.9062 20.1875 22.7344 19.4302 24.0823 18.0823C25.4302 16.7344 26.1875 14.9062 26.1875 13C26.1875 11.0938 25.4302 9.26559 24.0823 7.91767C22.7344 6.56975 20.9062 5.8125 19 5.8125C17.0938 5.8125 15.2656 6.56975 13.9177 7.91767ZM15.9506 9.9506C16.7594 9.14185 17.8563 8.6875 19 8.6875C20.1437 8.6875 21.2406 9.14185 22.0494 9.9506C22.8581 10.7594 23.3125 11.8563 23.3125 13C23.3125 14.1437 22.8581 15.2406 22.0494 16.0494C21.2406 16.8581 20.1437 17.3125 19 17.3125C17.8563 17.3125 16.7594 16.8581 15.9506 16.0494C15.1419 15.2406 14.6875 14.1437 14.6875 13C14.6875 11.8563 15.1419 10.7594 15.9506 9.9506Z" fill="#BCBCBC"/>
</svg>
