<svg width="12" height="14" viewBox="0 0 12 14" fill="none" xmlns="http://www.w3.org/2000/svg">
<path d="M2.23858 10.7708C2.0424 10.6374 1.87368 10.4668 1.67619 10.2268C1.57369 10.0989 1.47211 9.9702 1.37146 9.84077C1.06868 9.45744 0.877732 9.28011 0.680895 9.20744C0.598074 9.1795 0.521574 9.13494 0.455901 9.0764C0.390228 9.01785 0.336709 8.94651 0.298496 8.86656C0.260283 8.78661 0.238147 8.69967 0.233394 8.61086C0.22864 8.52206 0.241364 8.43318 0.270816 8.34947C0.300268 8.26575 0.345853 8.18889 0.404887 8.12341C0.463921 8.05793 0.53521 8.00515 0.614557 7.96818C0.693903 7.93122 0.779703 7.91081 0.866903 7.90816C0.954104 7.90552 1.04094 7.92069 1.12231 7.95277C1.61407 8.13277 1.94693 8.44277 2.39553 9.01144C2.33406 8.93344 2.61787 9.29611 2.67869 9.37077C2.80293 9.52211 2.89449 9.61411 2.96642 9.66277C3.09982 9.75411 3.35094 9.79344 3.71845 9.75611C3.73415 9.50144 3.77992 9.25411 3.85055 9.02544C1.90965 8.54211 0.811029 7.26544 0.811029 4.76144C0.811029 3.93611 1.05299 3.19144 1.5029 2.56744C1.36034 1.97144 1.38192 1.25077 1.70039 0.439441C1.73645 0.34754 1.79213 0.264979 1.86339 0.197752C1.93466 0.130524 2.01971 0.0803164 2.11237 0.0507741C2.16534 0.0347741 2.19542 0.0281075 2.24839 0.0194408C2.77351 -0.0625592 3.51508 0.132774 4.4816 0.750774C5.05759 0.613496 5.64722 0.544594 6.23874 0.545441C6.83514 0.545441 7.42826 0.614107 7.99392 0.750774C8.95979 0.128774 9.70332 -0.0672259 10.2317 0.0194408C10.2873 0.0287741 10.335 0.0407741 10.3743 0.0534407C10.4651 0.0839585 10.5482 0.134397 10.6178 0.201203C10.6874 0.268009 10.7418 0.349558 10.7771 0.440107C11.0956 1.25011 11.1171 1.97077 10.9746 2.56677C11.4265 3.19077 11.6665 3.93011 11.6665 4.76144C11.6665 7.26677 10.5718 8.53877 8.63086 9.02344C8.7126 9.30011 8.75511 9.60877 8.75511 9.94344C8.75511 10.3861 8.7538 10.8094 8.75053 11.2834C8.75053 11.4101 8.74922 11.5461 8.74726 11.7541C8.89379 11.787 9.02477 11.8703 9.11822 11.9899C9.21168 12.1096 9.26193 12.2584 9.26055 12.4113C9.25917 12.5643 9.20624 12.7121 9.11064 12.83C9.01504 12.9478 8.88259 13.0286 8.73549 13.0588C7.99 13.2108 7.43807 12.7041 7.43807 12.0428L7.43938 11.7448L7.44265 11.2748C7.44592 10.8034 7.44788 10.3828 7.44788 9.94344C7.44788 9.47877 7.32755 9.17544 7.1693 9.03611C6.73705 8.65611 6.95612 7.93344 7.52308 7.86877C9.46267 7.64611 10.3586 6.88011 10.3586 4.76211C10.3586 4.12544 10.1545 3.59877 9.76152 3.15877C9.67895 3.06626 9.62358 2.95194 9.60172 2.82886C9.57987 2.70579 9.59241 2.57892 9.63793 2.46277C9.74648 2.18611 9.79226 1.82477 9.70005 1.38677L9.69352 1.38811C9.37243 1.48144 8.96764 1.68144 8.47849 2.02144C8.39962 2.07601 8.30999 2.11234 8.21589 2.12789C8.1218 2.14343 8.0255 2.13782 7.93376 2.11144C7.3818 1.95541 6.81153 1.8769 6.23874 1.87811C5.65674 1.87811 5.07996 1.95811 4.54373 2.11144C4.45246 2.13761 4.35671 2.14323 4.2631 2.12792C4.16949 2.11261 4.08027 2.07673 4.00161 2.02277C3.50919 1.68477 3.10309 1.48477 2.77874 1.39144C2.68523 1.82677 2.73166 2.18744 2.83956 2.46277C2.88507 2.57892 2.89762 2.70579 2.87576 2.82886C2.85391 2.95194 2.79853 3.06626 2.71596 3.15877C2.32556 3.59611 2.11891 4.13144 2.11891 4.76144C2.11891 6.87611 3.01547 7.64811 4.94525 7.86811C5.51091 7.93344 5.73128 8.65344 5.30164 9.03411C5.17543 9.14544 5.02045 9.52211 5.02045 9.94344V12.0428C5.02045 12.7001 4.47506 13.1934 3.73873 13.0621C3.58912 13.0357 3.45317 12.9571 3.35421 12.8397C3.25524 12.7223 3.19943 12.5735 3.19633 12.4188C3.19324 12.264 3.24306 12.113 3.33725 11.9916C3.43145 11.8702 3.56414 11.786 3.71257 11.7534V11.0934C3.11748 11.1348 2.62637 11.0354 2.23858 10.7708Z" fill="#BCBCBC"/>
</svg>
