<svg width="934" height="685" viewBox="0 0 934 685" fill="none" xmlns="http://www.w3.org/2000/svg">
<path d="M-68 18C-34.6667 -2 -1.33333 -2 32 18C65.3333 38 98.6667 38 132 18C165.333 -2 198.667 -2 232 18C265.333 38 298.667 38 332 18C365.333 -2 398.667 -2 432 18C465.333 38 498.667 38 532 18C565.333 -2 598.667 -2 632 18C665.333 38 698.667 38 732 18C765.333 -2 798.667 -2 832 18C865.333 38 898.667 38 932 18" stroke="#DEDEDE" stroke-width="5"/>
<path d="M-68 77C-34.6667 57 -1.33333 57 32 77C65.3333 97 98.6667 97 132 77C165.333 57 198.667 57 232 77C265.333 97 298.667 97 332 77C365.333 57 398.667 57 432 77C465.333 97 498.667 97 532 77C565.333 57 598.667 57 632 77C665.333 97 698.667 97 732 77C765.333 57 798.667 57 832 77C865.333 97 898.667 97 932 77" stroke="#DEDEDE" stroke-width="5"/>
<path d="M-68 136C-34.6667 116 -1.33333 116 32 136C65.3333 156 98.6667 156 132 136C165.333 116 198.667 116 232 136C265.333 156 298.667 156 332 136C365.333 116 398.667 116 432 136C465.333 156 498.667 156 532 136C565.333 116 598.667 116 632 136C665.333 156 698.667 156 732 136C765.333 116 798.667 116 832 136C865.333 156 898.667 156 932 136" stroke="#DEDEDE" stroke-width="5"/>
<path d="M-79 195C-45.6667 175 -12.3333 175 21 195C54.3333 215 87.6667 215 121 195C154.333 175 187.667 175 221 195C254.333 215 287.667 215 321 195C354.333 175 387.667 175 421 195C454.333 215 487.667 215 521 195C554.333 175 587.667 175 621 195C654.333 215 687.667 215 721 195C754.333 175 787.667 175 821 195C854.333 215 887.667 215 921 195" stroke="#DEDEDE" stroke-width="5"/>
<path d="M-79 254C-45.6667 234 -12.3333 234 21 254C54.3333 274 87.6667 274 121 254C154.333 234 187.667 234 221 254C254.333 274 287.667 274 321 254C354.333 234 387.667 234 421 254C454.333 274 487.667 274 521 254C554.333 234 587.667 234 621 254C654.333 274 687.667 274 721 254C754.333 234 787.667 234 821 254C854.333 274 887.667 274 921 254" stroke="#DEDEDE" stroke-width="5"/>
<path d="M-79 313C-45.6667 293 -12.3333 293 21 313C54.3333 333 87.6667 333 121 313C154.333 293 187.667 293 221 313C254.333 333 287.667 333 321 313C354.333 293 387.667 293 421 313C454.333 333 487.667 333 521 313C554.333 293 587.667 293 621 313C654.333 333 687.667 333 721 313C754.333 293 787.667 293 821 313C854.333 333 887.667 333 921 313" stroke="#DEDEDE" stroke-width="5"/>
<path d="M-88 372C-54.6667 352 -21.3333 352 12 372C45.3333 392 78.6667 392 112 372C145.333 352 178.667 352 212 372C245.333 392 278.667 392 312 372C345.333 352 378.667 352 412 372C445.333 392 478.667 392 512 372C545.333 352 578.667 352 612 372C645.333 392 678.667 392 712 372C745.333 352 778.667 352 812 372C845.333 392 878.667 392 912 372" stroke="#DEDEDE" stroke-width="5"/>
<path d="M-88 431C-54.6667 411 -21.3333 411 12 431C45.3333 451 78.6667 451 112 431C145.333 411 178.667 411 212 431C245.333 451 278.667 451 312 431C345.333 411 378.667 411 412 431C445.333 451 478.667 451 512 431C545.333 411 578.667 411 612 431C645.333 451 678.667 451 712 431C745.333 411 778.667 411 812 431C845.333 451 878.667 451 912 431" stroke="#DEDEDE" stroke-width="5"/>
<path d="M-88 490C-54.6667 470 -21.3333 470 12 490C45.3333 510 78.6667 510 112 490C145.333 470 178.667 470 212 490C245.333 510 278.667 510 312 490C345.333 470 378.667 470 412 490C445.333 510 478.667 510 512 490C545.333 470 578.667 470 612 490C645.333 510 678.667 510 712 490C745.333 470 778.667 470 812 490C845.333 510 878.667 510 912 490" stroke="#DEDEDE" stroke-width="5"/>
<path d="M-88 549C-54.6667 529 -21.3333 529 12 549C45.3333 569 78.6667 569 112 549C145.333 529 178.667 529 212 549C245.333 569 278.667 569 312 549C345.333 529 378.667 529 412 549C445.333 569 478.667 569 512 549C545.333 529 578.667 529 612 549C645.333 569 678.667 569 712 549C745.333 529 778.667 529 812 549C845.333 569 878.667 569 912 549" stroke="#DEDEDE" stroke-width="5"/>
<path d="M-88 608C-54.6667 588 -21.3333 588 12 608C45.3333 628 78.6667 628 112 608C145.333 588 178.667 588 212 608C245.333 628 278.667 628 312 608C345.333 588 378.667 588 412 608C445.333 628 478.667 628 512 608C545.333 588 578.667 588 612 608C645.333 628 678.667 628 712 608C745.333 588 778.667 588 812 608C845.333 628 878.667 628 912 608" stroke="#DEDEDE" stroke-width="5"/>
<path d="M-88 667C-54.6667 647 -21.3333 647 12 667C45.3333 687 78.6667 687 112 667C145.333 647 178.667 647 212 667C245.333 687 278.667 687 312 667C345.333 647 378.667 647 412 667C445.333 687 478.667 687 512 667C545.333 647 578.667 647 612 667C645.333 687 678.667 687 712 667C745.333 647 778.667 647 812 667C845.333 687 878.667 687 912 667" stroke="#DEDEDE" stroke-width="5"/>
</svg>
